# xmcd CD database file
#
# Track frame offsets:
#	182
#	8895
#	19710
#	40375
#	58620
#	77867
#	108517
#	121667
#	133287
#	149457
#	173347
#
# Disc length: 2631 seconds
#
# Revision: 2
# Processed by: cddbd v1.4PL0 Copyright (c) Steve Scherf et al.
# Submitted via: CDex 1.40Beta9
#
DISCID=8e0a450b
DTITLE=Climax Chicago Blues Band - A Lot Of Bottle
DYEAR=1990
DGENRE=Rock
TTITLE0=Country Hat
TTITLE1=Everyday
TTITLE2=Reap What I've Sowed
TTITLE3=Brief Case
TTITLE4=Alright Blue?
TTITLE5=Seventh Son
TTITLE6=Please Don't Help Me
TTITLE7=Morning Noon and Night
TTITLE8=Long Lovin' Man
TTITLE9=Louisiana Blues
TTITLE10=Cut You Loose
EXTD=YEAR: 1990 ID3G: 17
EXTT0=
EXTT1=
EXTT2=
EXTT3=
EXTT4=
EXTT5=
EXTT6=
EXTT7=
EXTT8=
EXTT9=
EXTT10=
PLAYORDER=
